<?xml version="1.0" standalone="no"?><!DOCTYPE svg PUBLIC "-//W3C//DTD SVG 1.1//EN" "http://www.w3.org/Graphics/SVG/1.1/DTD/svg11.dtd"><svg t="1572242962610" class="icon" viewBox="0 0 1024 1024" version="1.1" xmlns="http://www.w3.org/2000/svg" p-id="11019" xmlns:xlink="http://www.w3.org/1999/xlink" width="32" height="32"><defs><style type="text/css"></style></defs><path d="M588.148364 671.604364c152.948364 67.956364 252.532364 109.312 346.321454 129.722181C842.193455 935.796364 687.406545 1024 512 1024 229.236364 1024 0 794.763636 0 512S229.236364 0 512 0s512 229.236364 512 512c0 74.938182-16.081455 146.106182-45.009455 210.245818-174.126545-27.810909-339.083636-106.705455-339.083636-106.705454 21.550545-27.787636 38.935273-54.853818 52.130909-81.221819 13.149091-26.344727 23.109818-49.803636 29.789091-70.423272a406.341818 406.341818 0 0 0 17.128727-67.560728h0.116364v-0.721454l-0.116364 0.698182h-167.330909v-79.778909h210.594909V282.065455h-210.618181V199.400727h-55.319273c-9.099636 0-17.268364 0.698182-24.436364 2.141091a49.454545 49.454545 0 0 0-16.523636 5.399273c-4.794182 2.629818-7.214545 6.097455-7.214546 10.426182v64.674909h-204.823272V316.509091h204.846545v79.802182h-147.362909v34.490182h311.947636c-0.930909 3.84-3.118545 10.542545-6.469818 20.130909-3.351273 9.588364-8.145455 21.434182-14.382545 35.584a541.626182 541.626182 0 0 1-23.714909 46.708363 418.210909 418.210909 0 0 1-35.211637 52.130909 870.539636 870.539636 0 0 1-37.376-14.382545c-14.382545-6.237091-29.579636-12.706909-45.637818-19.432727-16.058182-6.679273-33.047273-12.916364-51.037091-18.664728a552.773818 552.773818 0 0 0-56.436363-14.731636 385.768727 385.768727 0 0 0-61.067637-7.540364 196.654545 196.654545 0 0 0-64.349091 7.889455c-21.317818 6.237091-40.727273 15.36-58.205091 27.322182a152.040727 152.040727 0 0 0-42.775272 43.845818 109.335273 109.335273 0 0 0-17.245091 57.483636c0 24.436364 5.026909 45.893818 15.104 64.349091a134.865455 134.865455 0 0 0 40.96 45.986909c17.245091 12.218182 37.492364 21.434182 60.741818 27.694546a286.254545 286.254545 0 0 0 74.379636 9.309091h11.496728c1.442909 0 2.653091-0.232727 3.607272-0.698182 10.053818-0.465455 22.760727-1.559273 38.097455-3.258182 15.313455-1.652364 33.163636-5.725091 53.527273-12.194909 20.363636-6.469818 43.240727-15.825455 67.560727-29.835636 27.717818-15.965091 103.866182-76.916364 103.866182-76.916364zM185.646545 648.610909c0.581818-26.740364 30.161455-98.932364 144.709819-87.063273 60.509091 6.260364 128.674909 42.868364 142.08 49.338182 13.405091 6.446545 27.066182 13.521455 40.96 21.178182-1.908364 1.931636-3.84 3.723636-5.748364 5.422545-1.908364 1.652364-53.876364 50.548364-85.736727 69.469091-31.883636 18.944-72.797091 38.074182-123.438546 36.514909-15.336727-0.465455-114.734545-6.981818-112.826182-94.859636z" fill="#00AAEE" p-id="11020"></path></svg>