<?xml version="1.0" standalone="no"?><!DOCTYPE svg PUBLIC "-//W3C//DTD SVG 1.1//EN" "http://www.w3.org/Graphics/SVG/1.1/DTD/svg11.dtd"><svg t="1571982952542" class="icon" viewBox="0 0 1024 1024" version="1.1" xmlns="http://www.w3.org/2000/svg" p-id="6306" xmlns:xlink="http://www.w3.org/1999/xlink" width="16" height="16"><defs><style type="text/css"></style></defs><path d="M400.234667 91.797333c11.754667 0 21.333333 9.578667 21.333333 21.333334v286.997333c0 11.754667-9.578667 21.333333-21.333333 21.333333H113.237333c-11.754667 0-21.333333-9.578667-21.333333-21.333333V113.130667c0-11.754667 9.578667-21.333333 21.333333-21.333334h286.997334m0-64H113.237333a85.333333 85.333333 0 0 0-85.333333 85.333334v286.997333a85.333333 85.333333 0 0 0 85.333333 85.333333h286.997334a85.333333 85.333333 0 0 0 85.333333-85.333333V113.130667a85.333333 85.333333 0 0 0-85.333333-85.333334zM908.266667 91.797333c11.754667 0 21.333333 9.578667 21.333333 21.333334v286.997333c0 11.754667-9.578667 21.333333-21.333333 21.333333H621.248c-11.754667 0-21.333333-9.578667-21.333333-21.333333V113.130667c0-11.754667 9.578667-21.333333 21.333333-21.333334h287.018667m0-64H621.248a85.333333 85.333333 0 0 0-85.333333 85.333334v286.997333a85.333333 85.333333 0 0 0 85.333333 85.333333h286.997333a85.333333 85.333333 0 0 0 85.333334-85.333333V113.130667c0.021333-47.125333-38.186667-85.333333-85.312-85.333334zM400.021333 601.002667c11.754667 0 21.333333 9.578667 21.333334 21.333333v286.997333c0 11.754667-9.578667 21.333333-21.333334 21.333334H113.024c-11.754667 0-21.333333-9.578667-21.333333-21.333334V622.336c0-11.754667 9.578667-21.333333 21.333333-21.333333h286.997333m0-64H113.024a85.333333 85.333333 0 0 0-85.333333 85.333333v286.997333a85.333333 85.333333 0 0 0 85.333333 85.333334h286.997333a85.333333 85.333333 0 0 0 85.333334-85.333334V622.336a85.333333 85.333333 0 0 0-85.333334-85.333333zM858.368 992.341333h-210.517333a109.930667 109.930667 0 0 1-109.802667-109.802666V649.130667a109.930667 109.930667 0 0 1 109.802667-109.802667h233.408a109.930667 109.930667 0 0 1 109.802666 109.802667v210.517333a32 32 0 1 1-64 0v-210.517333a45.866667 45.866667 0 0 0-45.802666-45.802667H647.850667a45.866667 45.866667 0 0 0-45.802667 45.802667v233.408a45.866667 45.866667 0 0 0 45.802667 45.802666h210.517333a32 32 0 1 1 0 64z" p-id="6307" fill="#cdcdcd"></path></svg>