<?xml version="1.0" standalone="no"?><!DOCTYPE svg PUBLIC "-//W3C//DTD SVG 1.1//EN" "http://www.w3.org/Graphics/SVG/1.1/DTD/svg11.dtd"><svg t="1571982926790" class="icon" viewBox="0 0 1024 1024" version="1.1" xmlns="http://www.w3.org/2000/svg" p-id="5498" xmlns:xlink="http://www.w3.org/1999/xlink" width="16" height="16"><defs><style type="text/css"></style></defs><path d="M551.24565315 146.49575202a55.72257041 55.72257041 0 0 0-74.87611771 0L173.59749031 433.99014919a27.93080806 27.93080806 0 0 0 37.40329743 41.4877653l4.81445789-4.57112789V770.96744029a55.86161614 55.86161614 0 0 0 55.86161614 55.93113899h162.56182192v-168.17579269a39.33255672 39.33255672 0 0 1 39.34993745-39.38469887h76.49252415a39.33255672 39.33255672 0 0 1 39.34993743 39.38469887v168.17579269h166.42034055a55.86161614 55.86161614 0 0 0 55.87899684-55.931139V474.57411735c12.40983009 11.22794151 30.01649379 10.37628651 40.34063816-1.12974643a27.93080806 27.93080806 0 0 0-2.01616287-39.45422174L551.24565315 146.51313273z" fill="#bfbfbf" p-id="5499"></path></svg>