<?xml version="1.0" standalone="no"?><!DOCTYPE svg PUBLIC "-//W3C//DTD SVG 1.1//EN" "http://www.w3.org/Graphics/SVG/1.1/DTD/svg11.dtd"><svg t="1571982844623" class="icon" viewBox="0 0 1024 1024" version="1.1" xmlns="http://www.w3.org/2000/svg" p-id="3624" xmlns:xlink="http://www.w3.org/1999/xlink" width="16" height="16"><defs><style type="text/css"></style></defs><path d="M831.48875001 884.883125H171.86187501c-17.06625 0-34.1334375-8.533125-45.22687501-21.3328125l-0.853125-0.85312501c-11.0934375-15.3609375-14.506875-33.28125-10.24031249-49.49343749 34.9875-177.4940625 181.760625-312.320625 356.69343749-326.82750001 4.2665625-0.853125 7.68-1.70625 11.0934375-1.70624999h32.4271875l-4.26749999 42.6665625H494.421875c-6.826875 0-10.2403125 0-15.35999999 1.70625h-2.55937501C318.6340625 540.13718749 186.36875 661.31093749 155.6478125 822.59093749c-0.853125 4.2665625-0.853125 10.2403125 3.4125 14.506875l0.85312501 1.70625001c2.56125 3.4134375 6.8278125 5.120625 11.9475 5.120625h660.48c5.1196875 0 9.38625-1.70625 11.9465625-5.120625 4.2665625-5.1196875 5.1196875-10.239375 4.26656249-16.21312501-19.6265625-105.81375-83.626875-195.4125-174.07968749-246.61312499l-0.85312501-0.85312501c-6.826875-4.2675-15.36-8.5340625-23.04-12.80062499-2.5603125-1.70625-5.120625-2.559375-7.67999999-4.26562501l-11.9465625-5.12062499 17.06624999-38.40000001 11.9465625 5.11968751c8.533125 3.4134375 17.0671875 8.533125 24.7471875 11.94656249l10.239375 5.12062501c102.4003125 58.0265625 173.2265625 158.71875 196.2665625 276.48 4.2665625 17.06625 0 34.9865625-12.7996875 50.3465625-11.9465625 13.6528125-29.866875 21.3328125-46.93312499 21.3328125z" fill="#bfbfbf" p-id="3625"></path><path d="M506.3684375 514.536875c-107.52 0-196.2665625-88.7465625-196.26656249-196.26656251S398.84843751 122.00375 506.3684375 122.00375s196.2665625 88.7465625 196.2665625 196.265625-89.5996875 196.2675-196.265625 196.2675z m0-361.81312501c-92.16 0-165.5465625 74.2396875-165.54656249 165.5465625s74.240625 165.5465625 165.54656249 165.5465625 165.5465625-74.240625 165.5465625-165.5465625-74.240625-165.5465625-165.5465625-165.5465625z" fill="#bfbfbf" p-id="3626"></path><path d="M506.3684375 518.8034375c-110.9334375 0-200.533125-89.5996875-200.533125-200.53312501S395.435 117.73624999 506.3684375 117.73624999s200.533125 89.600625 200.53312501 200.5340625-90.4528125 200.533125-200.53312501 200.53312501z m0-392.533125c-105.8128125 0-192 86.18625-192 191.99999999s86.1871875 192 192 192.00000001 192-86.1871875 192-192.00000001-86.18625-192-192-191.99999999z m0 361.81312499c-93.86625 0-169.813125-75.946875-169.813125-169.813125s75.946875-169.8140625 169.813125-169.81406249c93.8671875 0 169.813125 75.946875 169.813125 169.81406249s-76.8 169.813125-169.813125 169.813125z m0-331.093125c-88.7465625 0-161.28 72.5334375-161.28 161.28 0 88.7465625 72.5334375 161.28 161.28 161.28s161.28-72.534375 161.28000001-161.28c0-88.7465625-72.5334375-161.28-161.28000001-161.28zM244.3953125 743.2296875c-1.70625 0-4.2665625-0.853125-5.97375-1.70625001-5.9728125-3.4134375-8.533125-11.0934375-5.1196875-17.06718749 75.09375-145.92 238.08-173.2265625 244.906875-174.0796875 6.826875-0.853125 13.6528125 3.4134375 14.506875 10.2403125 0.853125 6.826875-3.4134375 13.6528125-10.2403125 14.506875-1.70625 0-157.0134375 26.4525-226.1334375 160.42593749-2.559375 5.120625-6.826875 7.68-11.9465625 7.68000001z m-29.01374999 74.240625c-6.8259375 0-12.7996875-5.97375-12.7996875-12.80062501 0-24.74625 16.213125-51.1996875 18.7734375-53.75999999 3.4125-5.9728125 11.9465625-7.68 17.92031249-4.265625 5.9728125 3.4125 7.68 11.945625 4.265625 17.91937499-4.265625 5.9728125-14.5059375 25.6003125-14.5059375 40.10625-0.853125 6.826875-5.97375 12.800625-13.65374999 12.80062501z" fill="#bfbfbf" p-id="3627"></path></svg>