<?xml version="1.0" standalone="no"?><!DOCTYPE svg PUBLIC "-//W3C//DTD SVG 1.1//EN" "http://www.w3.org/Graphics/SVG/1.1/DTD/svg11.dtd"><svg t="1572253837641" class="icon" viewBox="0 0 1706 1024" version="1.1" xmlns="http://www.w3.org/2000/svg" p-id="11783" xmlns:xlink="http://www.w3.org/1999/xlink" width="53.3125" height="32"><defs><style type="text/css"></style></defs><path d="M852.855467 938.257067c-471.04 0-767.5904-425.7792-767.5904-425.7792s296.5504-425.847467 767.5904-425.847467c470.971733 0 767.522133 425.847467 767.522133 425.847467s-296.5504 425.7792-767.522133 425.7792m837.495466-474.453334C1677.312 444.962133 1362.602667 1.501867 852.855467 1.501867 343.108267 1.501867 28.4672 444.962133 15.223467 463.803733a84.992 84.992 0 0 0 0 97.28c13.243733 18.8416 327.8848 462.370133 837.632 462.370134 509.678933 0 824.32-443.528533 837.495466-462.370134a84.992 84.992 0 0 0 0-97.28" p-id="11784" fill="#d81e06"></path><path d="M852.855467 768a256 256 0 0 1-255.863467-255.522133 256 256 0 0 1 255.863467-255.522134 256 256 0 0 1 255.7952 255.522134 256 256 0 0 1-255.7952 255.453866m0-596.104533a340.923733 340.923733 0 0 0-341.128534 340.650667 340.923733 340.923733 0 0 0 341.128534 340.650666 340.923733 340.923733 0 0 0 341.128533-340.650666 340.923733 340.923733 0 0 0-341.128533-340.650667" p-id="11785" fill="#d81e06"></path></svg>