<?xml version="1.0" standalone="no"?><!DOCTYPE svg PUBLIC "-//W3C//DTD SVG 1.1//EN" "http://www.w3.org/Graphics/SVG/1.1/DTD/svg11.dtd"><svg t="1571982888255" class="icon" viewBox="0 0 1024 1024" version="1.1" xmlns="http://www.w3.org/2000/svg" p-id="4633" xmlns:xlink="http://www.w3.org/1999/xlink" width="16" height="16"><defs><style type="text/css"></style></defs><path d="M512 0C230.717561 0 2.691397 228.024165 2.691397 509.306604S230.717561 1018.615208 512 1018.615208 1021.308603 790.589044 1021.308603 509.306604 793.282439 0 512 0z m243.065205 345.778019c-10.687633 13.008251-24.095646 23.893766-37.687549 37.087907 24.641321-4.655227 16.314282 19.17058 9.012631 31.64315-27.053884 46.210472-69.744453 75.467044-115.759042 100.959858-5.902484 3.266054-12.238709 5.816535-21.159395 10.006039 25.294932-0.78953 15.784597 19.180574 6.006422 30.907588-39.200648 47.007997-90.446121 74.275754-150.516337 85.239223-28.239178 5.15293-57.299866 7.259675-86.052738 7.995237-14.7732 0.38577-15.808583-1.033384-32.982353 15.752616-13.631879 13.352046-24.207579 29.46045-37.079911 43.486095-2.832313 3.094157-5.704602 4.91907-8.988645 6.36221h172.986951v7.40359h-193.404788c111.677473-146.91848 226.435112-290.752798 399.965739-377.695006-46.050568 3.953645-125.371316 48.035385-191.755771 105.365234-59.302673 51.159524-105.365234 102.027222-153.80038 155.243521-14.325466-36.920007-14.427406-76.674325 1.539083-115.868977 17.949308-44.029771 47.307819-80.416096 84.221829-110.897937 18.704857-15.428809 44.869271-27.449648 41.577232-6.84992 37.221827-29.614359 78.972956-51.30144 125.469257-63.288299 14.465383-3.733776 52.428768-14.381433 42.460706 9.88811 33.795868-18.011271 76.454456-26.282344 107.897725-20.907546 9.628264 0.393765 18.802799 2.546483 26.70809 5.950456 23.030281 9.550311 27.205793 22.928342 11.341244 42.216851z" fill="#bfbfbf" p-id="4634"></path></svg>